<svg width="210" height="131" viewBox="0 0 210 131" fill="none" xmlns="http://www.w3.org/2000/svg">
<rect x="16.5" y="10" width="8" height="8" rx="4" fill="#8E8E8E"/>
<rect x="28.5" y="12" width="15" height="4" rx="1" fill="#D6D6D6"/>
<rect x="146.5" y="10.5" width="17" height="7" rx="1" fill="#D6D6D6"/>
<rect x="167.5" y="10.5" width="26" height="7" rx="1" fill="#8E8E8E"/>
<rect x="51.5" y="34" width="8" height="8" rx="1" fill="black" fill-opacity="0.1"/>
<rect x="71.5" y="34" width="33" height="4" rx="1" fill="#D6D6D6"/>
<rect x="108.5" y="34" width="20" height="4" rx="1" fill="#D6D6D6"/>
<rect x="132.5" y="34" width="13" height="4" rx="1" fill="#D6D6D6"/>
<rect x="71.5" y="43" width="27" height="4" rx="1" fill="#D6D6D6"/>
<rect x="102.5" y="43" width="10" height="4" rx="1" fill="#D6D6D6"/>
<rect x="51.5" y="55" width="8" height="8" rx="1" fill="#D6D6D6"/>
<rect x="71.5" y="55" width="11" height="4" rx="1" fill="#E5E5E5"/>
<rect x="86.5" y="55" width="34" height="4" rx="1" fill="#E5E5E5"/>
<rect x="124.5" y="55" width="15" height="4" rx="1" fill="#E5E5E5"/>
<rect x="71.5" y="64" width="8" height="4" rx="1" fill="#E5E5E5"/>
<rect x="83.5" y="64" width="20" height="4" rx="1" fill="#E5E5E5"/>
<rect x="107.5" y="64" width="42" height="4" rx="1" fill="#E5E5E5"/>
<rect x="71.5" y="73" width="43" height="4" rx="1" fill="#E5E5E5"/>
<rect x="118.5" y="73" width="8" height="4" rx="1" fill="#E5E5E5"/>
<g filter="url(#filter0_d_1066_5109)">
<rect x="48" y="105.5" width="114" height="15" rx="1.5" stroke="url(#paint0_linear_1066_5109)" shape-rendering="crispEdges"/>
<rect x="51.5" y="109" width="8" height="8" rx="4" fill="#E5E5E5"/>
<rect x="72" y="111" width="33" height="4" rx="1" fill="#E5E5E5"/>
<rect x="151.5" y="109.5" width="7" height="7" rx="1" fill="#8E8E8E"/>
</g>
<defs>
<filter id="filter0_d_1066_5109" x="46.5" y="105" width="117" height="18" filterUnits="userSpaceOnUse" color-interpolation-filters="sRGB">
<feFlood flood-opacity="0" result="BackgroundImageFix"/>
<feColorMatrix in="SourceAlpha" type="matrix" values="0 0 0 0 0 0 0 0 0 0 0 0 0 0 0 0 0 0 127 0" result="hardAlpha"/>
<feOffset dy="1"/>
<feGaussianBlur stdDeviation="0.5"/>
<feComposite in2="hardAlpha" operator="out"/>
<feColorMatrix type="matrix" values="0 0 0 0 0 0 0 0 0 0 0 0 0 0 0 0 0 0 0.04 0"/>
<feBlend mode="normal" in2="BackgroundImageFix" result="effect1_dropShadow_1066_5109"/>
<feBlend mode="normal" in="SourceGraphic" in2="effect1_dropShadow_1066_5109" result="shape"/>
</filter>
<linearGradient id="paint0_linear_1066_5109" x1="105" y1="105" x2="105" y2="121" gradientUnits="userSpaceOnUse">
<stop stop-opacity="0.1"/>
<stop offset="0.869792" stop-opacity="0.1"/>
<stop offset="1" stop-opacity="0.12"/>
</linearGradient>
</defs>
</svg>
