<svg width="209" height="134" fill="none" xmlns="http://www.w3.org/2000/svg"><rect x="16" y="10" width="8" height="8" rx="4" fill="#8E8E8E"/><rect x="28" y="12" width="15" height="4" rx="1" fill="#D6D6D6"/><rect x="47" y="12" width="9" height="4" rx="1" fill="#E5E5E5"/><rect x="60" y="12" width="15" height="4" rx="1" fill="#E5E5E5"/><rect x="97.5" y="10.5" width="66" height="7" rx=".5" stroke="url(#a)"/><rect x="186" y="10.5" width="7" height="7" rx="1" fill="#D6D6D6"/><g filter="url(#b)"><rect x="34.5" y="30.5" width="93" height="90" rx="1.5" stroke="url(#c)" shape-rendering="crispEdges"/><g filter="url(#d)"><path d="M64.06 47.366a1 1 0 0 0-.353.186l-12 9.816a1 1 0 0 0-.193 1.336l5.469 8.057a1 1 0 0 0 1.055.412l5.827-1.364V96.5a.5.5 0 0 0 .5.5h33.27a.5.5 0 0 0 .5-.5V65.809l5.827 1.364a1 1 0 0 0 1.055-.412l5.469-8.057a1 1 0 0 0-.194-1.336l-12-9.816a1 1 0 0 0-.352-.186L86.417 44a17.765 17.765 0 0 1-10.834 0L64.06 47.366Z" fill="#F9F9F9"/><path d="M64.06 47.366a1 1 0 0 0-.353.186l-12 9.816a1 1 0 0 0-.193 1.336l5.469 8.057a1 1 0 0 0 1.055.412l5.827-1.364V96.5a.5.5 0 0 0 .5.5h33.27a.5.5 0 0 0 .5-.5V65.809l5.827 1.364a1 1 0 0 0 1.055-.412l5.469-8.057a1 1 0 0 0-.194-1.336l-12-9.816a1 1 0 0 0-.352-.186L86.417 44a17.765 17.765 0 0 1-10.834 0L64.06 47.366Z" fill="url(#e)" fill-opacity=".4"/></g><path d="M73.5 44.75c.167 2.143 1.9 6 7.5 6s7.333-3.857 7.5-6M64 48c.684 3.385 1.701 11.723.293 18M99 48c-1.369 3.385-3.403 11.723-.587 18" stroke="#8E8E8E" stroke-width=".5" stroke-dasharray="1 2"/><g opacity=".3"><path d="m75 44.054.221-.054a22.397 22.397 0 0 0 11.558 0l.221.054C86.965 46.79 84.292 49 81 49s-5.965-2.21-6-4.946Z" fill="#8E8E8E"/><path d="m75 44.054.221-.054a22.397 22.397 0 0 0 11.558 0l.221.054C86.965 46.79 84.292 49 81 49s-5.965-2.21-6-4.946Z" fill="url(#f)" fill-opacity=".4"/></g><path d="m52 57 7 10M110 57l-7 10" stroke="#8E8E8E" stroke-width=".5" stroke-dasharray="1 2"/><rect x="46.5" y="110" width="45" height="4" rx="1" fill="#E5E5E5"/><rect x="95.5" y="109" width="20" height="6" rx="3" fill="#D6D6D6"/></g><g filter="url(#g)"><rect x="134.5" y="30.5" width="40" height="42" rx="1.5" stroke="url(#h)" shape-rendering="crispEdges"/><path d="M157 43h7a2 2 0 0 1 2 2v2a2 2 0 0 1-2 2h-7v-6Z" stroke="#D9D9D9" stroke-width="2"/><g filter="url(#i)"><path d="M146 39a1 1 0 0 1 1-1h14a1 1 0 0 1 1 1v13a5 5 0 0 1-5 5h-6a5 5 0 0 1-5-5V39Z" fill="#E5E5E5"/><path d="M146 39a1 1 0 0 1 1-1h14a1 1 0 0 1 1 1v13a5 5 0 0 1-5 5h-6a5 5 0 0 1-5-5V39Z" fill="url(#j)" fill-opacity=".4"/></g><path d="M146 39a1 1 0 0 1 1-1h14a1 1 0 0 1 1 1v2a1 1 0 0 1-1 1h-14a1 1 0 0 1-1-1v-2Z" fill="#E4E4E4"/><rect x="142" y="63" width="25" height="4" rx="1" fill="#E5E5E5"/></g><g filter="url(#k)"><rect x="134.5" y="79.5" width="40" height="41" rx="1.5" stroke="url(#l)" shape-rendering="crispEdges"/><g filter="url(#m)"><path d="M145.036 94.615a9.5 9.5 0 0 1 9.5-9.5c5.246 0 9.5 4.254 9.5 9.5v4.336h-19v-4.336Z" fill="#E5E5E5"/><path d="M145.036 94.615a9.5 9.5 0 0 1 9.5-9.5c5.246 0 9.5 4.254 9.5 9.5v4.336h-19v-4.336Z" fill="url(#n)" fill-opacity=".4"/></g><g filter="url(#o)"><rect x="144.663" y="98.183" width="19.742" height="6" rx="1" fill="#D9D9D9"/></g><rect x="150.616" y="100.012" width="7.839" height="2.344" rx=".25" fill="#F5F5F5"/><rect x="142" y="111" width="25" height="4" rx="1" fill="#E5E5E5"/></g><defs><linearGradient id="a" x1="130.5" y1="10" x2="130.5" y2="18" gradientUnits="userSpaceOnUse"><stop stop-opacity=".1"/><stop offset=".87" stop-opacity=".1"/><stop offset="1" stop-opacity=".12"/></linearGradient><linearGradient id="c" x1="81" y1="30" x2="81" y2="121" gradientUnits="userSpaceOnUse"><stop stop-opacity=".1"/><stop offset=".87" stop-opacity=".1"/><stop offset="1" stop-opacity=".12"/></linearGradient><linearGradient id="e" x1="81" y1="44" x2="81" y2="97" gradientUnits="userSpaceOnUse"><stop stop-color="#F9F9F9"/><stop offset="1" stop-color="#727272"/></linearGradient><linearGradient id="f" x1="81" y1="44" x2="81" y2="49" gradientUnits="userSpaceOnUse"><stop stop-opacity="0"/><stop offset="1"/></linearGradient><linearGradient id="h" x1="154.5" y1="30" x2="154.5" y2="73" gradientUnits="userSpaceOnUse"><stop stop-opacity=".1"/><stop offset=".87" stop-opacity=".1"/><stop offset="1" stop-opacity=".12"/></linearGradient><linearGradient id="j" x1="154" y1="38" x2="154" y2="57" gradientUnits="userSpaceOnUse"><stop stop-opacity="0"/><stop offset="1" stop-color="#797979"/></linearGradient><linearGradient id="l" x1="154.5" y1="79" x2="154.5" y2="121" gradientUnits="userSpaceOnUse"><stop stop-opacity=".1"/><stop offset=".87" stop-opacity=".1"/><stop offset="1" stop-opacity=".12"/></linearGradient><linearGradient id="n" x1="154.536" y1="85.115" x2="154.536" y2="98.951" gradientUnits="userSpaceOnUse"><stop stop-opacity="0"/><stop offset="1" stop-color="#6E6E6E"/></linearGradient><filter id="b" x="33" y="30" width="96" height="93" filterUnits="userSpaceOnUse" color-interpolation-filters="sRGB"><feFlood flood-opacity="0" result="BackgroundImageFix"/><feColorMatrix in="SourceAlpha" values="0 0 0 0 0 0 0 0 0 0 0 0 0 0 0 0 0 0 127 0" result="hardAlpha"/><feOffset dy="1"/><feGaussianBlur stdDeviation=".5"/><feComposite in2="hardAlpha" operator="out"/><feColorMatrix values="0 0 0 0 0 0 0 0 0 0 0 0 0 0 0 0 0 0 0.04 0"/><feBlend in2="BackgroundImageFix" result="effect1_dropShadow_1044_3557"/><feBlend in="SourceGraphic" in2="effect1_dropShadow_1044_3557" result="shape"/></filter><filter id="d" x="51.341" y="44" width="59.318" height="53" filterUnits="userSpaceOnUse" color-interpolation-filters="sRGB"><feFlood flood-opacity="0" result="BackgroundImageFix"/><feBlend in="SourceGraphic" in2="BackgroundImageFix" result="shape"/><feColorMatrix in="SourceAlpha" values="0 0 0 0 0 0 0 0 0 0 0 0 0 0 0 0 0 0 127 0" result="hardAlpha"/><feOffset/><feGaussianBlur stdDeviation="1.5"/><feComposite in2="hardAlpha" operator="arithmetic" k2="-1" k3="1"/><feColorMatrix values="0 0 0 0 0 0 0 0 0 0 0 0 0 0 0 0 0 0 0.15 0"/><feBlend in2="shape" result="effect1_innerShadow_1044_3557"/></filter><filter id="g" x="133" y="30" width="43" height="45" filterUnits="userSpaceOnUse" color-interpolation-filters="sRGB"><feFlood flood-opacity="0" result="BackgroundImageFix"/><feColorMatrix in="SourceAlpha" values="0 0 0 0 0 0 0 0 0 0 0 0 0 0 0 0 0 0 127 0" result="hardAlpha"/><feOffset dy="1"/><feGaussianBlur stdDeviation=".5"/><feComposite in2="hardAlpha" operator="out"/><feColorMatrix values="0 0 0 0 0 0 0 0 0 0 0 0 0 0 0 0 0 0 0.04 0"/><feBlend in2="BackgroundImageFix" result="effect1_dropShadow_1044_3557"/><feBlend in="SourceGraphic" in2="effect1_dropShadow_1044_3557" result="shape"/></filter><filter id="i" x="146" y="35" width="16" height="22" filterUnits="userSpaceOnUse" color-interpolation-filters="sRGB"><feFlood flood-opacity="0" result="BackgroundImageFix"/><feBlend in="SourceGraphic" in2="BackgroundImageFix" result="shape"/><feColorMatrix in="SourceAlpha" values="0 0 0 0 0 0 0 0 0 0 0 0 0 0 0 0 0 0 127 0" result="hardAlpha"/><feOffset dy="-3"/><feGaussianBlur stdDeviation="2"/><feComposite in2="hardAlpha" operator="arithmetic" k2="-1" k3="1"/><feColorMatrix values="0 0 0 0 0 0 0 0 0 0 0 0 0 0 0 0 0 0 0.1 0"/><feBlend in2="shape" result="effect1_innerShadow_1044_3557"/></filter><filter id="k" x="133" y="79" width="43" height="44" filterUnits="userSpaceOnUse" color-interpolation-filters="sRGB"><feFlood flood-opacity="0" result="BackgroundImageFix"/><feColorMatrix in="SourceAlpha" values="0 0 0 0 0 0 0 0 0 0 0 0 0 0 0 0 0 0 127 0" result="hardAlpha"/><feOffset dy="1"/><feGaussianBlur stdDeviation=".5"/><feComposite in2="hardAlpha" operator="out"/><feColorMatrix values="0 0 0 0 0 0 0 0 0 0 0 0 0 0 0 0 0 0 0.04 0"/><feBlend in2="BackgroundImageFix" result="effect1_dropShadow_1044_3557"/><feBlend in="SourceGraphic" in2="effect1_dropShadow_1044_3557" result="shape"/></filter><filter id="m" x="145.036" y="85.115" width="19" height="17.835" filterUnits="userSpaceOnUse" color-interpolation-filters="sRGB"><feFlood flood-opacity="0" result="BackgroundImageFix"/><feBlend in="SourceGraphic" in2="BackgroundImageFix" result="shape"/><feColorMatrix in="SourceAlpha" values="0 0 0 0 0 0 0 0 0 0 0 0 0 0 0 0 0 0 127 0" result="hardAlpha"/><feOffset dy="4"/><feGaussianBlur stdDeviation="2"/><feComposite in2="hardAlpha" operator="arithmetic" k2="-1" k3="1"/><feColorMatrix values="0 0 0 0 0 0 0 0 0 0 0 0 0 0 0 0 0 0 0.1 0"/><feBlend in2="shape" result="effect1_innerShadow_1044_3557"/></filter><filter id="o" x="144.663" y="98.183" width="19.742" height="6" filterUnits="userSpaceOnUse" color-interpolation-filters="sRGB"><feFlood flood-opacity="0" result="BackgroundImageFix"/><feBlend in="SourceGraphic" in2="BackgroundImageFix" result="shape"/><feColorMatrix in="SourceAlpha" values="0 0 0 0 0 0 0 0 0 0 0 0 0 0 0 0 0 0 127 0" result="hardAlpha"/><feOffset/><feGaussianBlur stdDeviation="1"/><feComposite in2="hardAlpha" operator="arithmetic" k2="-1" k3="1"/><feColorMatrix values="0 0 0 0 0 0 0 0 0 0 0 0 0 0 0 0 0 0 0.1 0"/><feBlend in2="shape" result="effect1_innerShadow_1044_3557"/></filter></defs></svg>